<?xml version="1.0" encoding="utf-8"?>
<!-- Generator: Adobe Illustrator 19.0.0, SVG Export Plug-In . SVG Version: 6.00 Build 0)  -->
<svg version="1.1" id="Layer_1" xmlns="http://www.w3.org/2000/svg" xmlns:xlink="http://www.w3.org/1999/xlink" x="0px" y="0px"
	 viewBox="-80 369.9 434 102" style="enable-background:new -80 369.9 434 102;" xml:space="preserve">
<style type="text/css">
	.st0{fill:#052D49;}
	.st1{fill:#FFFFFF;}
</style>
<rect x="-48" y="401.9" class="st0" width="8" height="38"/>
<circle class="st1" cx="-23" cy="416.9" r="15"/>
<path class="st1" d="M17.9,408.7h8.3c1.3,0,2.4,0.1,3.5,0.3c1.1,0.2,2,0.5,2.8,1s1.4,1.1,1.9,1.9c0.5,0.8,0.7,1.7,0.7,2.9
	c0,0.5-0.1,1.1-0.2,1.6s-0.4,1.1-0.6,1.5c-0.3,0.5-0.6,0.9-1,1.3s-0.8,0.6-1.3,0.8v0.1c0.6,0.1,1.2,0.4,1.7,0.7
	c0.5,0.3,1,0.7,1.4,1.2s0.7,1,0.9,1.7c0.2,0.6,0.3,1.4,0.3,2.2c0,1.2-0.2,2.3-0.7,3.2s-1.2,1.6-2,2.2s-1.9,1-3,1.3
	c-1.1,0.3-2.4,0.4-3.7,0.4h-9L17.9,408.7L17.9,408.7z M25.9,418.4c1.3,0,2.3-0.3,2.9-0.8s0.9-1.2,0.9-2.1c0-0.9-0.3-1.6-0.9-2
	c-0.6-0.4-1.6-0.6-2.9-0.6h-2.6v5.5C23.3,418.4,25.9,418.4,25.9,418.4z M26.5,428.8c3,0,4.5-1.1,4.5-3.3c0-1.1-0.4-1.8-1.1-2.3
	s-1.9-0.7-3.4-0.7h-3.1v6.3H26.5z"/>
<path class="st1" d="M40.4,408.7h15.2v4.6h-9.7v4.9h8.3v4.6h-8.3v5.6H56v4.6H40.4V408.7z"/>
<path class="st1" d="M71,433.5c-1.5,0-3-0.3-4.4-0.8s-2.6-1.3-3.6-2.4c-1-1-1.8-2.3-2.4-3.9c-0.6-1.6-0.9-3.3-0.9-5.4
	c0-2,0.3-3.8,0.9-5.4s1.5-2.9,2.5-4s2.3-1.9,3.7-2.5s2.9-0.9,4.4-0.9c1.6,0,3,0.3,4.2,1c1.2,0.6,2.3,1.4,3.1,2.2l-2.9,3.5
	c-0.6-0.6-1.3-1-2-1.4s-1.5-0.5-2.3-0.5s-1.6,0.2-2.3,0.5c-0.7,0.4-1.4,0.9-1.9,1.5c-0.5,0.7-1,1.5-1.3,2.5s-0.5,2.1-0.5,3.3
	c0,2.5,0.5,4.5,1.6,5.8c1.1,1.4,2.5,2.1,4.3,2.1c1,0,1.9-0.2,2.7-0.7c0.8-0.4,1.5-1,2.1-1.6l2.9,3.4C76.9,432.3,74.2,433.5,71,433.5
	L71,433.5z"/>
<path class="st1" d="M91.1,433.5c-1.6,0-3.1-0.3-4.5-0.9s-2.5-1.4-3.5-2.5s-1.7-2.4-2.3-4s-0.8-3.3-0.8-5.3s0.3-3.8,0.8-5.3
	c0.5-1.6,1.3-2.9,2.3-3.9c1-1.1,2.1-1.9,3.5-2.4c1.4-0.6,2.9-0.8,4.5-0.8s3.1,0.3,4.5,0.8c1.4,0.6,2.5,1.4,3.5,2.4
	c1,1.1,1.7,2.4,2.3,3.9c0.5,1.6,0.8,3.3,0.8,5.3s-0.3,3.8-0.8,5.3c-0.5,1.6-1.3,2.9-2.3,4s-2.1,1.9-3.5,2.5S92.7,433.5,91.1,433.5z
	 M91.1,428.7c1.7,0,3-0.7,4-2.1s1.5-3.4,1.5-5.8s-0.5-4.3-1.5-5.7s-2.3-2.1-4-2.1s-3,0.7-4,2.1s-1.5,3.3-1.5,5.7
	c0,2.5,0.5,4.4,1.5,5.8S89.4,428.7,91.1,428.7z"/>
<path class="st1" d="M106.7,408.7h6l3.9,10.8c0.2,0.7,0.5,1.5,0.7,2.2c0.2,0.8,0.5,1.5,0.7,2.3h0.1c0.2-0.7,0.5-1.5,0.7-2.3
	s0.4-1.5,0.7-2.2l3.8-10.8h6V433h-5v-8.9c0-0.6,0-1.3,0.1-2c0-0.7,0.1-1.4,0.2-2.2c0.1-0.7,0.1-1.5,0.2-2.2c0.1-0.7,0.1-1.4,0.2-2
	l-2,5.8l-3.5,9.3h-3l-3.5-9.3l-1.9-5.8H111c0.1,0.6,0.1,1.2,0.2,2c0.1,0.7,0.1,1.4,0.2,2.2c0.1,0.7,0.1,1.5,0.2,2.2
	c0,0.7,0.1,1.4,0.1,2v8.9h-4.9L106.7,408.7L106.7,408.7z"/>
<path class="st1" d="M135.1,408.7h15.2v4.6h-9.7v4.9h8.3v4.6h-8.3v5.6h10.1v4.6h-15.6V408.7z"/>
<path class="st1" d="M174.5,427.2H167l-1.5,5.8h-5.6l7.6-24.3h6.6l7.6,24.3h-5.8L174.5,427.2L174.5,427.2z M173.3,422.9l-0.6-2.2
	c-0.3-1.2-0.7-2.5-1-3.9c-0.3-1.4-0.6-2.7-1-4h-0.1c-0.3,1.3-0.6,2.6-0.9,4c-0.3,1.4-0.6,2.6-1,3.9l-0.6,2.2H173.3L173.3,422.9z"/>
<path class="st1" d="M191.9,408.7h8.4c1.3,0,2.6,0.1,3.8,0.4c1.2,0.3,2.2,0.7,3.1,1.3c0.9,0.6,1.6,1.4,2.1,2.4s0.8,2.2,0.8,3.7
	c0,1.4-0.3,2.6-0.8,3.7c-0.5,1-1.2,1.9-2.1,2.6c-0.9,0.7-1.9,1.2-3,1.5c-1.1,0.3-2.4,0.5-3.7,0.5h-3v8.2H192L191.9,408.7
	L191.9,408.7z M200,420.4c3,0,4.5-1.3,4.5-3.9c0-1.3-0.4-2.2-1.2-2.7s-1.9-0.8-3.4-0.8h-2.5v7.3h2.6V420.4z"/>
<path class="st1" d="M223.7,427.2h-7.4l-1.5,5.8h-5.6l7.6-24.3h6.6L231,433h-5.8L223.7,427.2L223.7,427.2z M222.5,422.9l-0.6-2.2
	c-0.3-1.2-0.7-2.5-1-3.9c-0.3-1.4-0.6-2.7-1-4h-0.1c-0.3,1.3-0.6,2.6-0.9,4c-0.3,1.4-0.6,2.6-1,3.9l-0.6,2.2H222.5z"/>
<path class="st1" d="M235.6,413.3H229v-4.6h18.9v4.6h-6.7V433h-5.5L235.6,413.3L235.6,413.3z"/>
<path class="st1" d="M264.8,433l-4.7-8.8h-3v8.8h-5.5v-24.3h8.8c1.3,0,2.5,0.1,3.6,0.4c1.1,0.2,2.1,0.7,3,1.2c0.8,0.6,1.5,1.4,2,2.3
	c0.5,1,0.7,2.2,0.7,3.6c0,1.8-0.4,3.3-1.2,4.4c-0.8,1.2-1.8,2-3.2,2.6l5.5,9.7L264.8,433L264.8,433z M257.1,419.9h2.8
	c1.4,0,2.5-0.3,3.3-0.9s1.1-1.5,1.1-2.7c0-1.2-0.4-2-1.1-2.5c-0.8-0.5-1.9-0.7-3.3-0.7h-2.8C257.1,413.1,257.1,419.9,257.1,419.9z"
	/>
<path class="st1" d="M284.4,433.5c-1.6,0-3.1-0.3-4.5-0.9s-2.5-1.4-3.5-2.5s-1.7-2.4-2.3-4c-0.5-1.6-0.8-3.3-0.8-5.3
	s0.3-3.8,0.8-5.3c0.5-1.6,1.3-2.9,2.3-3.9c1-1.1,2.1-1.9,3.5-2.4c1.4-0.6,2.9-0.8,4.5-0.8s3.1,0.3,4.5,0.8c1.4,0.6,2.5,1.4,3.5,2.4
	c1,1.1,1.7,2.4,2.3,3.9c0.5,1.6,0.8,3.3,0.8,5.3s-0.3,3.8-0.8,5.3s-1.3,2.9-2.3,4s-2.1,1.9-3.5,2.5S286,433.5,284.4,433.5z
	 M284.4,428.7c1.7,0,3-0.7,4-2.1s1.5-3.4,1.5-5.8s-0.5-4.3-1.5-5.7s-2.3-2.1-4-2.1s-3,0.7-4,2.1s-1.5,3.3-1.5,5.7
	c0,2.5,0.5,4.4,1.5,5.8S282.7,428.7,284.4,428.7z"/>
<path class="st1" d="M300,408.7h5.6l6.3,12.1l2.4,5.4h0.1c-0.1-1.3-0.3-2.7-0.4-4.3c-0.2-1.6-0.2-3.1-0.2-4.6v-8.6h5.2V433h-5.6
	l-6.3-12.1l-2.4-5.3h-0.1c0.1,1.3,0.3,2.8,0.4,4.3c0.2,1.5,0.2,3,0.2,4.5v8.6H300V408.7z"/>
</svg>
